<svg width="221" height="50" viewBox="0 0 221 50" fill="none" xmlns="http://www.w3.org/2000/svg">
<path d="M21.4297 10.7148H28.5725L35.7154 14.2863V17.8577H21.4297V10.7148Z" fill="#4BB793"/>
<path d="M35.714 32.1441H21.4283L7.14258 21.4298V17.8584H21.4283L35.714 28.5727V32.1441Z" fill="#4BB793"/>
<path d="M21.4283 39.2874H14.2854L7.14258 35.716V32.1445H21.4283V39.2874Z" fill="#4BB793"/>
<path d="M191.07 42.8601V15.0201H196.28V18.9013L195.796 17.7817C196.466 16.7616 197.371 15.978 198.512 15.4306C199.678 14.8584 201.005 14.5723 202.494 14.5723C204.429 14.5723 206.177 15.0449 207.741 15.9904C209.303 16.9358 210.544 18.2171 211.461 19.8342C212.379 21.4266 212.838 23.2179 212.838 25.2082C212.838 27.1737 212.379 28.9649 211.461 30.5821C210.569 32.1993 209.341 33.4806 207.777 34.426C206.215 35.3714 204.441 35.8441 202.457 35.8441C201.068 35.8441 199.777 35.5953 198.587 35.0977C197.421 34.5753 196.478 33.8165 195.759 32.8213L196.652 31.6644V42.8601H191.07ZM201.787 30.806C202.829 30.806 203.747 30.5697 204.541 30.097C205.335 29.6243 205.954 28.9649 206.401 28.1191C206.848 27.2732 207.071 26.3029 207.071 25.2082C207.071 24.1135 206.848 23.1557 206.401 22.3346C205.954 21.4887 205.335 20.8294 204.541 20.3567C203.747 19.8591 202.829 19.6103 201.787 19.6103C200.794 19.6103 199.902 19.8467 199.108 20.3194C198.339 20.7921 197.731 21.4514 197.285 22.2974C196.863 23.1432 196.652 24.1135 196.652 25.2082C196.652 26.3029 196.863 27.2732 197.285 28.1191C197.731 28.9649 198.339 29.6243 199.108 30.097C199.902 30.5697 200.794 30.806 201.787 30.806Z" fill="white"/>
<path d="M177.642 35.8441C176.179 35.8441 174.914 35.6077 173.847 35.135C172.78 34.6624 171.962 33.9906 171.391 33.1199C170.821 32.2241 170.535 31.1668 170.535 29.9477C170.535 28.8032 170.796 27.7957 171.316 26.9249C171.838 26.0292 172.632 25.2828 173.698 24.6857C174.79 24.0886 176.141 23.6657 177.754 23.4169L183.968 22.4092V26.5143L178.758 27.4474C177.965 27.5966 177.357 27.8578 176.935 28.231C176.514 28.5793 176.303 29.0894 176.303 29.7611C176.303 30.3831 176.539 30.8682 177.01 31.2166C177.481 31.5649 178.064 31.7391 178.758 31.7391C179.676 31.7391 180.482 31.5399 181.177 31.1419C181.872 30.7439 182.406 30.209 182.777 29.5372C183.174 28.8406 183.373 28.0817 183.373 27.2607V21.9615C183.373 21.1902 183.063 20.5433 182.442 20.0208C181.847 19.4984 181.029 19.2372 179.987 19.2372C178.994 19.2372 178.114 19.5108 177.345 20.0582C176.6 20.6055 176.055 21.327 175.707 22.2227L171.242 20.0955C171.639 18.951 172.272 17.9683 173.14 17.1473C174.008 16.3263 175.05 15.6918 176.266 15.2441C177.481 14.7962 178.808 14.5723 180.247 14.5723C181.958 14.5723 183.472 14.8832 184.787 15.5052C186.101 16.1273 187.118 16.998 187.838 18.1176C188.582 19.2123 188.954 20.4935 188.954 21.9615V35.3963H183.745V32.1122L185.01 31.8883C184.415 32.784 183.757 33.5303 183.038 34.1274C182.318 34.6997 181.512 35.1226 180.619 35.3963C179.726 35.6949 178.734 35.8441 177.642 35.8441Z" fill="white"/>
<path d="M159.711 35.8441C157.552 35.8441 155.68 35.3714 154.092 34.426C152.504 33.4557 151.276 32.162 150.408 30.5449C149.539 28.9276 149.105 27.1364 149.105 25.1708C149.105 23.1307 149.552 21.3146 150.445 19.7223C151.363 18.13 152.591 16.8736 154.129 15.9531C155.667 15.0325 157.404 14.5723 159.339 14.5723C160.951 14.5723 162.377 14.8335 163.618 15.356C164.858 15.8536 165.9 16.5626 166.743 17.4832C167.612 18.4037 168.269 19.4735 168.715 20.6926C169.162 21.8868 169.385 23.193 169.385 24.6111C169.385 25.0091 169.36 25.4073 169.311 25.8053C169.286 26.1785 169.224 26.5019 169.125 26.7756H153.905V22.6705H165.962L163.32 24.6111C163.568 23.5413 163.555 22.5958 163.282 21.7749C163.01 20.929 162.526 20.2697 161.831 19.7969C161.162 19.2993 160.33 19.0506 159.339 19.0506C158.371 19.0506 157.54 19.2869 156.846 19.7596C156.151 20.2324 155.63 20.929 155.282 21.8495C154.935 22.77 154.798 23.8896 154.873 25.2082C154.774 26.3526 154.91 27.3602 155.282 28.231C155.655 29.1018 156.225 29.786 156.994 30.2836C157.764 30.7563 158.693 30.9926 159.785 30.9926C160.777 30.9926 161.621 30.7936 162.315 30.3956C163.035 29.9974 163.593 29.4501 163.989 28.7535L168.455 30.8807C168.058 31.8758 167.425 32.7466 166.557 33.493C165.714 34.2394 164.709 34.8241 163.543 35.247C162.377 35.645 161.099 35.8441 159.711 35.8441Z" fill="white"/>
<path d="M141.965 35.393V7.14258H147.546V35.393H141.965Z" fill="white"/>
<path d="M127.68 35.395V15.0189H132.89V19.9076L132.517 19.1986C132.964 17.4819 133.696 16.325 134.713 15.7279C135.755 15.1059 136.982 14.7949 138.397 14.7949H139.587V19.6464H137.838C136.473 19.6464 135.37 20.0694 134.526 20.9153C133.683 21.7363 133.261 22.9056 133.261 24.4232V35.395H127.68Z" fill="white"/>
<path d="M115.963 35.8432C113.804 35.8432 111.932 35.3704 110.344 34.425C108.756 33.4547 107.528 32.161 106.66 30.5439C105.791 28.9266 105.357 27.1354 105.357 25.1699C105.357 23.1298 105.804 21.3136 106.697 19.7213C107.615 18.1291 108.843 16.8726 110.381 15.9521C111.919 15.0316 113.656 14.5713 115.59 14.5713C117.203 14.5713 118.629 14.8325 119.87 15.355C121.11 15.8526 122.152 16.5616 122.995 17.4822C123.864 18.4027 124.521 19.4725 124.967 20.6916C125.414 21.8858 125.637 23.192 125.637 24.6101C125.637 25.0082 125.612 25.4063 125.563 25.8043C125.538 26.1775 125.476 26.5009 125.377 26.7746H110.157V22.6695H122.214L119.572 24.6101C119.82 23.5403 119.807 22.5949 119.534 21.7739C119.262 20.928 118.778 20.2687 118.083 19.7959C117.414 19.2983 116.582 19.0496 115.59 19.0496C114.623 19.0496 113.792 19.2859 113.098 19.7586C112.403 20.2314 111.882 20.928 111.534 21.8485C111.187 22.7691 111.05 23.8886 111.125 25.2072C111.026 26.3516 111.162 27.3592 111.534 28.23C111.907 29.1008 112.477 29.785 113.246 30.2826C114.015 30.7553 114.945 30.9916 116.037 30.9916C117.029 30.9916 117.873 30.7926 118.567 30.3946C119.287 29.9965 119.845 29.4491 120.241 28.7525L124.707 30.8797C124.31 31.8749 123.677 32.7457 122.809 33.492C121.965 34.2384 120.961 34.8231 119.795 35.246C118.629 35.6441 117.351 35.8432 115.963 35.8432Z" fill="white"/>
<path d="M82.1445 42.8601V15.0201H87.354V18.9013L86.8702 17.7817C87.5401 16.7616 88.4455 15.978 89.5865 15.4306C90.7526 14.8584 92.0794 14.5723 93.5677 14.5723C95.5035 14.5723 97.2517 15.0449 98.8151 15.9904C100.378 16.9358 101.618 18.2171 102.536 19.8342C103.453 21.4266 103.912 23.2179 103.912 25.2082C103.912 27.1737 103.453 28.9649 102.536 30.5821C101.643 32.1993 100.415 33.4806 98.8517 34.426C97.2892 35.3714 95.5151 35.8441 93.5311 35.8441C92.1419 35.8441 90.8517 35.5953 89.6606 35.0977C88.4952 34.5753 87.5525 33.8165 86.833 32.8213L87.7261 31.6644V42.8601H82.1445ZM92.8615 30.806C93.9035 30.806 94.8213 30.5697 95.6151 30.097C96.4088 29.6243 97.0285 28.9649 97.4749 28.1191C97.9222 27.2732 98.1454 26.3029 98.1454 25.2082C98.1454 24.1135 97.9222 23.1557 97.4749 22.3346C97.0285 21.4887 96.4088 20.8294 95.6151 20.3567C94.8213 19.8591 93.9035 19.6103 92.8615 19.6103C91.8686 19.6103 90.9758 19.8467 90.182 20.3194C89.4133 20.7921 88.8052 21.4514 88.3586 22.2974C87.9369 23.1432 87.7261 24.1135 87.7261 25.2082C87.7261 26.3029 87.9369 27.2732 88.3586 28.1191C88.8052 28.9649 89.4133 29.6243 90.182 30.097C90.9758 30.5697 91.8686 30.806 92.8615 30.806Z" fill="white"/>
<path d="M69.3081 35.8416C67.6707 35.8416 66.2692 35.4933 65.1032 34.7967C63.9622 34.0752 63.0939 33.08 62.4985 31.8112C61.9031 30.5423 61.6055 29.062 61.6055 27.3702V15.0176H67.1871V26.9223C67.1871 27.6937 67.3359 28.3778 67.6336 28.9749C67.9561 29.5471 68.4026 29.995 68.9731 30.3184C69.5437 30.6418 70.1887 30.8036 70.9081 30.8036C71.6523 30.8036 72.2973 30.6418 72.8431 30.3184C73.4136 29.995 73.8477 29.5471 74.1454 28.9749C74.4679 28.3778 74.6291 27.6937 74.6291 26.9223V15.0176H80.2107V35.3937H75.0013V31.3633L75.299 32.259C74.8276 33.478 74.0586 34.3862 72.9919 34.9833C71.95 35.5555 70.7221 35.8416 69.3081 35.8416Z" fill="white"/>
<path d="M52.0484 35.8441C49.8158 35.8441 47.8684 35.3216 46.2064 34.2767C44.5691 33.2069 43.4528 31.7764 42.8574 29.985L46.9505 28.0444C47.4715 29.1391 48.1785 29.9974 49.0715 30.6194C49.9647 31.2415 50.9569 31.5524 52.0484 31.5524C52.8422 31.5524 53.45 31.3908 53.8717 31.0673C54.2934 30.7439 54.5043 30.296 54.5043 29.7238C54.5043 29.4252 54.4299 29.1765 54.281 28.9774C54.1322 28.7535 53.9089 28.5545 53.6113 28.3803C53.3136 28.2062 52.9414 28.0569 52.4949 27.9324L49.0344 26.9622C47.3723 26.4895 46.0947 25.7307 45.2017 24.6857C44.3087 23.6159 43.8621 22.3595 43.8621 20.9166C43.8621 19.6476 44.1846 18.5406 44.8296 17.5951C45.4746 16.6497 46.38 15.9157 47.5459 15.3933C48.7119 14.8459 50.0514 14.5723 51.5647 14.5723C53.5492 14.5723 55.2857 15.0449 56.7741 15.9904C58.2873 16.9109 59.354 18.2171 59.9742 19.9089L55.8439 21.8495C55.5462 21.0036 55.0005 20.3318 54.2066 19.8342C53.4376 19.3118 52.557 19.0506 51.5647 19.0506C50.8453 19.0506 50.2747 19.1999 49.853 19.4984C49.4561 19.7969 49.2576 20.2074 49.2576 20.7299C49.2576 21.0036 49.3321 21.2524 49.4809 21.4763C49.6297 21.7002 49.8654 21.8992 50.1879 22.0734C50.5352 22.2475 50.9569 22.4092 51.453 22.5585L54.6904 23.5289C56.3772 24.0265 57.6672 24.7852 58.5603 25.8053C59.4533 26.8005 59.8998 28.032 59.8998 29.4999C59.8998 30.7687 59.5649 31.8758 58.8951 32.8213C58.2502 33.7666 57.3447 34.5131 56.1788 35.0604C55.0129 35.5829 53.6361 35.8441 52.0484 35.8441Z" fill="white"/>
</svg>
